<svg width="32" height="32" viewBox="0 0 32 32" fill="none" xmlns="http://www.w3.org/2000/svg">
<path d="M17.7389 9.51634L22.5162 4.67887L20.6925 0.985596H10.8456L9.02136 4.67887L13.7992 9.51634C8.95385 10.4526 5.27832 14.7658 5.27832 19.9368C5.27832 25.7904 9.98471 30.5515 15.7688 30.5515C21.5529 30.5515 26.2592 25.7904 26.2592 19.9368C26.2592 14.7658 22.5837 10.4521 17.7389 9.51634ZM16.4493 7.23139H15.0804L14.3649 5.06224H17.1643L16.4493 7.23139ZM20.0997 1.93959L21.171 4.10874H18.2296L17.8763 1.93959H20.0997ZM18.169 5.06224H20.7974L18.6539 7.23139H17.454L18.169 5.06224ZM14.6266 1.93959H16.91L17.2633 4.10874H14.2673L14.6266 1.93959ZM11.4379 1.93959H13.6602L13.301 4.10874H10.3666L11.4379 1.93959ZM10.7386 5.06224H13.3606L14.0756 7.23139H12.8748L10.7386 5.06224ZM15.7688 29.5975C10.51 29.5975 6.23182 25.2636 6.23182 19.9368C6.23182 14.61 10.5105 10.2757 15.7688 10.2757C21.0271 10.2757 25.3053 14.6095 25.3053 19.9368C25.3053 25.2641 21.0276 29.5975 15.7688 29.5975Z" fill="black" fill-opacity="0.85"/>
<path d="M15.7688 11.3868C11.1087 11.3868 7.31689 15.2225 7.31689 19.9368C7.31689 24.6516 11.1087 28.4873 15.7688 28.4873C20.4289 28.4873 24.2207 24.6521 24.2207 19.9368C24.2207 15.2225 20.4289 11.3868 15.7688 11.3868ZM15.7688 27.5333C11.634 27.5333 8.27039 24.1253 8.27039 19.9368C8.27039 15.7483 11.6345 12.3403 15.7688 12.3403C19.9031 12.3403 23.2667 15.7483 23.2667 19.9368C23.2667 24.1253 19.9036 27.5333 15.7688 27.5333Z" fill="black" fill-opacity="0.85"/>
</svg>
