<svg width="16" height="14" viewBox="0 0 16 14" fill="none" xmlns="http://www.w3.org/2000/svg">
<path d="M9.26402 6.43199V13.104H15.984V8.68799C15.984 7.02399 15.696 5.50399 15.12 4.12799C14.544 2.75199 13.568 1.37599 12.192 -8.58307e-06L9.69602 1.91999C10.464 2.78399 11.072 3.56799 11.52 4.27199C11.936 4.97599 12.208 5.69599 12.336 6.43199H9.26402ZM2.28882e-05 6.43199V13.104H6.72002V8.68799C6.72002 7.02399 6.43202 5.50399 5.85602 4.12799C5.28002 2.75199 4.30402 1.37599 2.92802 -8.58307e-06L0.432023 1.91999C1.20002 2.78399 1.80802 3.56799 2.25602 4.27199C2.67202 4.97599 2.94402 5.69599 3.07202 6.43199H2.28882e-05Z" fill="#029837"/>
</svg>
